<svg width="21" height="15" viewBox="0 0 21 15" fill="none" xmlns="http://www.w3.org/2000/svg">
<path d="M1.92538 9.66687C2.81259 5.24258 6.52144 2.09897 10.6934 2.09897C14.8641 2.09897 18.5729 5.24258 19.4614 9.66687C19.4966 9.84243 19.5975 9.99628 19.7419 10.0946C19.8864 10.1929 20.0625 10.2276 20.2315 10.191C20.4006 10.1545 20.5488 10.0497 20.6434 9.89971C20.7381 9.74973 20.7715 9.56684 20.7363 9.39128C19.7255 4.35907 15.4976 0.748047 10.6934 0.748047C5.8892 0.748047 1.6613 4.35907 0.650508 9.39128C0.615316 9.56684 0.648724 9.74973 0.743382 9.89971C0.83804 10.0497 0.986195 10.1545 1.15525 10.191C1.32431 10.2276 1.50043 10.1929 1.64485 10.0946C1.78928 9.99628 1.89019 9.84243 1.92538 9.66687ZM10.6804 4.80083C11.888 4.80083 13.0461 5.29898 13.8999 6.1857C14.7538 7.07242 15.2335 8.27506 15.2335 9.52907C15.2335 10.7831 14.7538 11.9857 13.8999 12.8724C13.0461 13.7592 11.888 14.2573 10.6804 14.2573C9.47283 14.2573 8.31472 13.7592 7.46084 12.8724C6.60697 11.9857 6.12726 10.7831 6.12726 9.52907C6.12726 8.27506 6.60697 7.07242 7.46084 6.1857C8.31472 5.29898 9.47283 4.80083 10.6804 4.80083Z" fill="#949BA5"/>
</svg>
